<mxfile host="app.diagrams.net" agent="Mozilla/5.0 (Windows NT 10.0; Win64; x64) AppleWebKit/537.36 (KHTML, like Gecko) Chrome/124.0.0.0 Safari/537.36" version="24.7.12" pages="3">
  <diagram name="Page-1" id="9f46799a-70d6-7492-0946-bef42562c5a5">
    <mxGraphModel dx="3085" dy="1665" grid="1" gridSize="10" guides="1" tooltips="1" connect="1" arrows="0" fold="1" page="1" pageScale="1" pageWidth="1100" pageHeight="850" background="none" math="0" shadow="0">
      <root>
        <mxCell id="0" />
        <mxCell id="1" parent="0" />
        <mxCell id="78961159f06e98e8-17" value="Hotel" style="swimlane;html=1;fontStyle=1;align=center;verticalAlign=top;childLayout=stackLayout;horizontal=1;startSize=26;horizontalStack=0;resizeParent=1;resizeLast=0;collapsible=1;marginBottom=0;swimlaneFillColor=#ffffff;rounded=0;shadow=0;comic=0;labelBackgroundColor=none;strokeWidth=1;fillColor=#D4E1F5;fontFamily=Verdana;fontSize=14;strokeColor=#36393d;" parent="1" vertex="1">
          <mxGeometry x="14" y="-300" width="220" height="312" as="geometry" />
        </mxCell>
        <mxCell id="78961159f06e98e8-21" value="&lt;span style=&quot;text-align: center; font-size: 14px;&quot;&gt;&lt;u&gt;Hotel _ID&lt;/u&gt;&lt;/span&gt;: int (PK)" style="text;html=1;strokeColor=none;fillColor=none;align=left;verticalAlign=top;spacingLeft=4;spacingRight=4;whiteSpace=wrap;overflow=hidden;rotatable=0;points=[[0,0.5],[1,0.5]];portConstraint=eastwest;fontSize=14;" parent="78961159f06e98e8-17" vertex="1">
          <mxGeometry y="26" width="220" height="26" as="geometry" />
        </mxCell>
        <mxCell id="78961159f06e98e8-25" value="&lt;span style=&quot;text-align: center; font-size: 14px;&quot;&gt;Hotel_Name&amp;nbsp;&lt;/span&gt;: varchar(50)" style="text;html=1;strokeColor=none;fillColor=none;align=left;verticalAlign=top;spacingLeft=4;spacingRight=4;whiteSpace=wrap;overflow=hidden;rotatable=0;points=[[0,0.5],[1,0.5]];portConstraint=eastwest;fontSize=14;" parent="78961159f06e98e8-17" vertex="1">
          <mxGeometry y="52" width="220" height="26" as="geometry" />
        </mxCell>
        <mxCell id="78961159f06e98e8-33" value="&lt;span style=&quot;text-align: center; font-size: 14px;&quot;&gt;Country&lt;/span&gt;: varchar(50)" style="text;html=1;strokeColor=none;fillColor=none;align=left;verticalAlign=top;spacingLeft=4;spacingRight=4;whiteSpace=wrap;overflow=hidden;rotatable=0;points=[[0,0.5],[1,0.5]];portConstraint=eastwest;fontSize=14;" parent="78961159f06e98e8-17" vertex="1">
          <mxGeometry y="78" width="220" height="26" as="geometry" />
        </mxCell>
        <mxCell id="78961159f06e98e8-24" value="&lt;span style=&quot;text-align: center; font-size: 14px;&quot;&gt;State&amp;nbsp;&lt;/span&gt;: varchar(50)" style="text;html=1;strokeColor=none;fillColor=none;align=left;verticalAlign=top;spacingLeft=4;spacingRight=4;whiteSpace=wrap;overflow=hidden;rotatable=0;points=[[0,0.5],[1,0.5]];portConstraint=eastwest;fontSize=14;" parent="78961159f06e98e8-17" vertex="1">
          <mxGeometry y="104" width="220" height="26" as="geometry" />
        </mxCell>
        <mxCell id="78961159f06e98e8-26" value="&lt;span style=&quot;text-align: center; font-size: 14px;&quot;&gt;City&lt;/span&gt;: varchar(50)" style="text;html=1;strokeColor=none;fillColor=none;align=left;verticalAlign=top;spacingLeft=4;spacingRight=4;whiteSpace=wrap;overflow=hidden;rotatable=0;points=[[0,0.5],[1,0.5]];portConstraint=eastwest;fontSize=14;" parent="78961159f06e98e8-17" vertex="1">
          <mxGeometry y="130" width="220" height="26" as="geometry" />
        </mxCell>
        <mxCell id="78961159f06e98e8-36" value="&lt;span style=&quot;text-align: center; font-size: 14px;&quot;&gt;Description&lt;/span&gt;: varchar(100)" style="text;html=1;strokeColor=none;fillColor=none;align=left;verticalAlign=top;spacingLeft=4;spacingRight=4;whiteSpace=wrap;overflow=hidden;rotatable=0;points=[[0,0.5],[1,0.5]];portConstraint=eastwest;fontSize=14;" parent="78961159f06e98e8-17" vertex="1">
          <mxGeometry y="156" width="220" height="26" as="geometry" />
        </mxCell>
        <mxCell id="YuKaW529NeOiqJrcWRDg-35" value="&lt;div style=&quot;text-align: center;&quot;&gt;&lt;span style=&quot;background-color: initial;&quot;&gt;Hotel Facilites: varchar(50)&lt;/span&gt;&lt;/div&gt;" style="text;html=1;strokeColor=none;fillColor=none;align=left;verticalAlign=top;spacingLeft=4;spacingRight=4;whiteSpace=wrap;overflow=hidden;rotatable=0;points=[[0,0.5],[1,0.5]];portConstraint=eastwest;fontSize=14;" parent="78961159f06e98e8-17" vertex="1">
          <mxGeometry y="182" width="220" height="26" as="geometry" />
        </mxCell>
        <mxCell id="YuKaW529NeOiqJrcWRDg-36" value="&lt;div style=&quot;text-align: center;&quot;&gt;&lt;span style=&quot;background-color: initial;&quot;&gt;Longitude: Float&lt;/span&gt;&lt;/div&gt;" style="text;html=1;strokeColor=none;fillColor=none;align=left;verticalAlign=top;spacingLeft=4;spacingRight=4;whiteSpace=wrap;overflow=hidden;rotatable=0;points=[[0,0.5],[1,0.5]];portConstraint=eastwest;fontSize=14;" parent="78961159f06e98e8-17" vertex="1">
          <mxGeometry y="208" width="220" height="26" as="geometry" />
        </mxCell>
        <mxCell id="YuKaW529NeOiqJrcWRDg-37" value="&lt;div style=&quot;text-align: center;&quot;&gt;&lt;span style=&quot;background-color: initial;&quot;&gt;Latitude: Float&lt;/span&gt;&lt;/div&gt;" style="text;html=1;strokeColor=none;fillColor=none;align=left;verticalAlign=top;spacingLeft=4;spacingRight=4;whiteSpace=wrap;overflow=hidden;rotatable=0;points=[[0,0.5],[1,0.5]];portConstraint=eastwest;fontSize=14;" parent="78961159f06e98e8-17" vertex="1">
          <mxGeometry y="234" width="220" height="26" as="geometry" />
        </mxCell>
        <mxCell id="78961159f06e98e8-23" value="&lt;span style=&quot;text-align: center; font-size: 14px;&quot;&gt;Rating&amp;nbsp;&lt;/span&gt;: float" style="text;html=1;strokeColor=none;fillColor=none;align=left;verticalAlign=top;spacingLeft=4;spacingRight=4;whiteSpace=wrap;overflow=hidden;rotatable=0;points=[[0,0.5],[1,0.5]];portConstraint=eastwest;fontSize=14;" parent="78961159f06e98e8-17" vertex="1">
          <mxGeometry y="260" width="220" height="26" as="geometry" />
        </mxCell>
        <mxCell id="78961159f06e98e8-69" value="Room" style="swimlane;html=1;fontStyle=1;align=center;verticalAlign=top;childLayout=stackLayout;horizontal=1;startSize=26;horizontalStack=0;resizeParent=1;resizeLast=0;collapsible=1;marginBottom=0;swimlaneFillColor=#ffffff;rounded=0;shadow=0;comic=0;labelBackgroundColor=none;strokeWidth=1;fillColor=#D4E1F5;fontFamily=Verdana;fontSize=14;strokeColor=#36393d;" parent="1" vertex="1">
          <mxGeometry x="580" y="318" width="200" height="120" as="geometry" />
        </mxCell>
        <mxCell id="78961159f06e98e8-70" value="&lt;span style=&quot;font-size: 14px; text-align: center;&quot;&gt;&lt;u&gt;Room_ID&lt;/u&gt;&lt;/span&gt;: int (PK)" style="text;html=1;strokeColor=none;fillColor=none;align=left;verticalAlign=top;spacingLeft=4;spacingRight=4;whiteSpace=wrap;overflow=hidden;rotatable=0;points=[[0,0.5],[1,0.5]];portConstraint=eastwest;fontSize=14;" parent="78961159f06e98e8-69" vertex="1">
          <mxGeometry y="26" width="200" height="26" as="geometry" />
        </mxCell>
        <mxCell id="78961159f06e98e8-71" value="&lt;div style=&quot;text-align: center;&quot;&gt;&lt;span style=&quot;background-color: initial;&quot;&gt;Floar_Number: int&lt;/span&gt;&lt;/div&gt;" style="text;html=1;strokeColor=none;fillColor=none;align=left;verticalAlign=top;spacingLeft=4;spacingRight=4;whiteSpace=wrap;overflow=hidden;rotatable=0;points=[[0,0.5],[1,0.5]];portConstraint=eastwest;fontSize=14;" parent="78961159f06e98e8-69" vertex="1">
          <mxGeometry y="52" width="200" height="26" as="geometry" />
        </mxCell>
        <mxCell id="78961159f06e98e8-76" value="&lt;span style=&quot;font-size: 14px; text-align: center;&quot;&gt;Room_Type&amp;nbsp;&lt;/span&gt;: varchar(50)" style="text;html=1;strokeColor=none;fillColor=none;align=left;verticalAlign=top;spacingLeft=4;spacingRight=4;whiteSpace=wrap;overflow=hidden;rotatable=0;points=[[0,0.5],[1,0.5]];portConstraint=eastwest;fontSize=14;" parent="78961159f06e98e8-69" vertex="1">
          <mxGeometry y="78" width="200" height="26" as="geometry" />
        </mxCell>
        <mxCell id="78961159f06e98e8-82" value="Booking" style="swimlane;html=1;fontStyle=1;align=center;verticalAlign=top;childLayout=stackLayout;horizontal=1;startSize=26;horizontalStack=0;resizeParent=1;resizeLast=0;collapsible=1;marginBottom=0;swimlaneFillColor=#ffffff;rounded=0;shadow=0;comic=0;labelBackgroundColor=none;strokeWidth=1;fillColor=#D4E1F5;fontFamily=Verdana;fontSize=14;strokeColor=#36393d;" parent="1" vertex="1">
          <mxGeometry x="270" y="-120" width="250" height="480" as="geometry" />
        </mxCell>
        <mxCell id="78961159f06e98e8-83" value="&lt;span style=&quot;font-size: 14px; text-align: center; text-decoration-line: underline;&quot;&gt;Booking_ID&amp;nbsp;&lt;/span&gt;: int&amp;nbsp;&lt;span style=&quot;text-align: center;&quot;&gt;(PK)&lt;/span&gt;" style="text;html=1;strokeColor=none;fillColor=none;align=left;verticalAlign=top;spacingLeft=4;spacingRight=4;whiteSpace=wrap;overflow=hidden;rotatable=0;points=[[0,0.5],[1,0.5]];portConstraint=eastwest;fontSize=14;" parent="78961159f06e98e8-82" vertex="1">
          <mxGeometry y="26" width="250" height="26" as="geometry" />
        </mxCell>
        <mxCell id="YuKaW529NeOiqJrcWRDg-24" value="&lt;span style=&quot;font-size: 14px; text-align: center;&quot;&gt;Booking_Date&amp;nbsp;&lt;/span&gt;: date" style="text;html=1;strokeColor=none;fillColor=none;align=left;verticalAlign=top;spacingLeft=4;spacingRight=4;whiteSpace=wrap;overflow=hidden;rotatable=0;points=[[0,0.5],[1,0.5]];portConstraint=eastwest;fontSize=14;" parent="78961159f06e98e8-82" vertex="1">
          <mxGeometry y="52" width="250" height="26" as="geometry" />
        </mxCell>
        <mxCell id="78961159f06e98e8-86" value="&lt;span style=&quot;font-size: 14px; text-align: center;&quot;&gt;CheckIN_Date&amp;nbsp;&lt;/span&gt;: date" style="text;html=1;strokeColor=none;fillColor=none;align=left;verticalAlign=top;spacingLeft=4;spacingRight=4;whiteSpace=wrap;overflow=hidden;rotatable=0;points=[[0,0.5],[1,0.5]];portConstraint=eastwest;fontSize=14;" parent="78961159f06e98e8-82" vertex="1">
          <mxGeometry y="78" width="250" height="26" as="geometry" />
        </mxCell>
        <mxCell id="78961159f06e98e8-87" value="&lt;span style=&quot;font-size: 14px; text-align: center;&quot;&gt;CheckOUT_Date&lt;/span&gt;&amp;nbsp;: date&lt;div&gt;&lt;br&gt;&lt;div&gt;&lt;span style=&quot;color: rgba(0, 0, 0, 0); font-family: monospace; font-size: 0px; text-wrap: nowrap;&quot;&gt;%3CmxGraphModel%3E%3Croot%3E%3CmxCell%20id%3D%220%22%2F%3E%3CmxCell%20id%3D%221%22%20parent%3D%220%22%2F%3E%3CmxCell%20id%3D%222%22%20value%3D%22%26lt%3Bspan%20style%3D%26quot%3Btext-align%3A%20center%3B%20font-size%3A%2014px%3B%26quot%3B%26gt%3BRoom%20_ID%26lt%3B%2Fspan%26gt%3B%26lt%3Bu%26gt%3B%3A%26lt%3B%2Fu%26gt%3B%20int%26amp%3Bnbsp%3B%26lt%3Bspan%20style%3D%26quot%3Btext-align%3A%20center%3B%26quot%3B%26gt%3B(FK)%26lt%3B%2Fspan%26gt%3B%22%20style%3D%22text%3Bhtml%3D1%3BstrokeColor%3Dnone%3BfillColor%3Dnone%3Balign%3Dleft%3BverticalAlign%3Dtop%3BspacingLeft%3D4%3BspacingRight%3D4%3BwhiteSpace%3Dwrap%3Boverflow%3Dhidden%3Brotatable%3D0%3Bpoints%3D%5B%5B0%2C0.5%5D%2C%5B1%2C0.5%5D%5D%3BportConstraint%3Deastwest%3BfontSize%3D14%3B%22%20vertex%3D%221%22%20parent%3D%221%22%3E%3CmxGeometry%20x%3D%22120%22%20y%3D%22246%22%20width%3D%22160%22%20height%3D%2226%22%20as%3D%22geometry%22%2F%3E%3C%2FmxCell%3E%3C%2Froot%3E%3C%2FmxGraphModel%3Esss&lt;/span&gt;&lt;span style=&quot;background-color: initial; text-align: center;&quot;&gt;User _ID&lt;/span&gt;&lt;u style=&quot;background-color: initial;&quot;&gt;:&lt;/u&gt;&lt;span style=&quot;background-color: initial;&quot;&gt;&amp;nbsp;int&amp;nbsp;&lt;/span&gt;&lt;span style=&quot;background-color: initial; text-align: center;&quot;&gt;(FK)&lt;/span&gt;&lt;/div&gt;&lt;div&gt;&lt;div&gt;&lt;br&gt;&lt;/div&gt;&lt;/div&gt;&lt;/div&gt;" style="text;html=1;strokeColor=none;fillColor=none;align=left;verticalAlign=top;spacingLeft=4;spacingRight=4;whiteSpace=wrap;overflow=hidden;rotatable=0;points=[[0,0.5],[1,0.5]];portConstraint=eastwest;fontSize=14;" parent="78961159f06e98e8-82" vertex="1">
          <mxGeometry y="104" width="250" height="20" as="geometry" />
        </mxCell>
        <mxCell id="78961159f06e98e8-84" value="&lt;span style=&quot;font-size: 14px; text-align: center;&quot;&gt;Num_Of_Adults&amp;nbsp;&lt;/span&gt;: int" style="text;html=1;strokeColor=none;fillColor=none;align=left;verticalAlign=top;spacingLeft=4;spacingRight=4;whiteSpace=wrap;overflow=hidden;rotatable=0;points=[[0,0.5],[1,0.5]];portConstraint=eastwest;fontSize=14;" parent="78961159f06e98e8-82" vertex="1">
          <mxGeometry y="124" width="250" height="26" as="geometry" />
        </mxCell>
        <mxCell id="YuKaW529NeOiqJrcWRDg-11" value="&lt;span style=&quot;font-size: 14px; text-align: center;&quot;&gt;Num_Of_Children&lt;/span&gt;: int" style="text;html=1;strokeColor=none;fillColor=none;align=left;verticalAlign=top;spacingLeft=4;spacingRight=4;whiteSpace=wrap;overflow=hidden;rotatable=0;points=[[0,0.5],[1,0.5]];portConstraint=eastwest;fontSize=14;" parent="78961159f06e98e8-82" vertex="1">
          <mxGeometry y="150" width="250" height="26" as="geometry" />
        </mxCell>
        <mxCell id="78961159f06e98e8-85" value="&lt;span style=&quot;font-size: 14px; text-align: center;&quot;&gt;Total_night&amp;nbsp;&lt;/span&gt;: int" style="text;html=1;strokeColor=none;fillColor=none;align=left;verticalAlign=top;spacingLeft=4;spacingRight=4;whiteSpace=wrap;overflow=hidden;rotatable=0;points=[[0,0.5],[1,0.5]];portConstraint=eastwest;fontSize=14;" parent="78961159f06e98e8-82" vertex="1">
          <mxGeometry y="176" width="250" height="26" as="geometry" />
        </mxCell>
        <mxCell id="YuKaW529NeOiqJrcWRDg-12" value="&lt;span style=&quot;font-size: 14px; text-align: center;&quot;&gt;Total amount&amp;nbsp;&lt;/span&gt;: float&amp;nbsp;" style="text;html=1;strokeColor=none;fillColor=none;align=left;verticalAlign=top;spacingLeft=4;spacingRight=4;whiteSpace=wrap;overflow=hidden;rotatable=0;points=[[0,0.5],[1,0.5]];portConstraint=eastwest;fontSize=14;" parent="78961159f06e98e8-82" vertex="1">
          <mxGeometry y="202" width="250" height="26" as="geometry" />
        </mxCell>
        <mxCell id="YuKaW529NeOiqJrcWRDg-17" value="&lt;span style=&quot;font-size: 14px; text-align: center;&quot;&gt;Payment Status&amp;nbsp;&lt;/span&gt;: Varchar(50)" style="text;html=1;strokeColor=none;fillColor=none;align=left;verticalAlign=top;spacingLeft=4;spacingRight=4;whiteSpace=wrap;overflow=hidden;rotatable=0;points=[[0,0.5],[1,0.5]];portConstraint=eastwest;fontSize=14;" parent="78961159f06e98e8-82" vertex="1">
          <mxGeometry y="228" width="250" height="26" as="geometry" />
        </mxCell>
        <mxCell id="YuKaW529NeOiqJrcWRDg-19" value="&lt;span style=&quot;font-size: 14px; text-align: center;&quot;&gt;Special Requests&amp;nbsp;&lt;/span&gt;: Varchar(50)" style="text;html=1;strokeColor=none;fillColor=none;align=left;verticalAlign=top;spacingLeft=4;spacingRight=4;whiteSpace=wrap;overflow=hidden;rotatable=0;points=[[0,0.5],[1,0.5]];portConstraint=eastwest;fontSize=14;" parent="78961159f06e98e8-82" vertex="1">
          <mxGeometry y="254" width="250" height="26" as="geometry" />
        </mxCell>
        <mxCell id="YuKaW529NeOiqJrcWRDg-20" value="&lt;span style=&quot;font-size: 14px; text-align: center;&quot;&gt;Reservation Source&amp;nbsp;&lt;/span&gt;: Varchar(50)" style="text;html=1;strokeColor=none;fillColor=none;align=left;verticalAlign=top;spacingLeft=4;spacingRight=4;whiteSpace=wrap;overflow=hidden;rotatable=0;points=[[0,0.5],[1,0.5]];portConstraint=eastwest;fontSize=14;" parent="78961159f06e98e8-82" vertex="1">
          <mxGeometry y="280" width="250" height="26" as="geometry" />
        </mxCell>
        <mxCell id="YuKaW529NeOiqJrcWRDg-21" value="&lt;span style=&quot;font-size: 14px; text-align: center;&quot;&gt;Breakfast_included&amp;nbsp;&lt;/span&gt;: Bit" style="text;html=1;strokeColor=none;fillColor=none;align=left;verticalAlign=top;spacingLeft=4;spacingRight=4;whiteSpace=wrap;overflow=hidden;rotatable=0;points=[[0,0.5],[1,0.5]];portConstraint=eastwest;fontSize=14;" parent="78961159f06e98e8-82" vertex="1">
          <mxGeometry y="306" width="250" height="26" as="geometry" />
        </mxCell>
        <mxCell id="YuKaW529NeOiqJrcWRDg-22" value="&lt;span style=&quot;font-size: 14px; text-align: center;&quot;&gt;Spa Package_included&amp;nbsp;&lt;/span&gt;: Bit" style="text;html=1;strokeColor=none;fillColor=none;align=left;verticalAlign=top;spacingLeft=4;spacingRight=4;whiteSpace=wrap;overflow=hidden;rotatable=0;points=[[0,0.5],[1,0.5]];portConstraint=eastwest;fontSize=14;" parent="78961159f06e98e8-82" vertex="1">
          <mxGeometry y="332" width="250" height="26" as="geometry" />
        </mxCell>
        <mxCell id="YuKaW529NeOiqJrcWRDg-23" value="&lt;span style=&quot;font-size: 14px; text-align: center;&quot;&gt;Airport_pickup_included&amp;nbsp;&amp;nbsp;&lt;/span&gt;: Bit" style="text;html=1;strokeColor=none;fillColor=none;align=left;verticalAlign=top;spacingLeft=4;spacingRight=4;whiteSpace=wrap;overflow=hidden;rotatable=0;points=[[0,0.5],[1,0.5]];portConstraint=eastwest;fontSize=14;" parent="78961159f06e98e8-82" vertex="1">
          <mxGeometry y="358" width="250" height="26" as="geometry" />
        </mxCell>
        <mxCell id="xuSP38dfbPnXMIdWxUSy-43" value="&lt;span style=&quot;text-align: center; font-size: 14px;&quot;&gt;Hotel_ID&lt;/span&gt;&lt;u&gt;:&lt;/u&gt; int&amp;nbsp;&lt;span style=&quot;text-align: center;&quot;&gt;(FK)&lt;/span&gt;" style="text;html=1;strokeColor=none;fillColor=none;align=left;verticalAlign=top;spacingLeft=4;spacingRight=4;whiteSpace=wrap;overflow=hidden;rotatable=0;points=[[0,0.5],[1,0.5]];portConstraint=eastwest;fontSize=14;" parent="78961159f06e98e8-82" vertex="1">
          <mxGeometry y="384" width="250" height="26" as="geometry" />
        </mxCell>
        <mxCell id="daP8iGCR7o7oa7H0C6Kk-14" value="&lt;span style=&quot;text-align: center; font-size: 14px;&quot;&gt;&lt;u&gt;Room _ID&lt;/u&gt;&lt;/span&gt;: int&amp;nbsp;&lt;span style=&quot;text-align: center;&quot;&gt;(FK)&lt;/span&gt;" style="text;html=1;strokeColor=none;fillColor=none;align=left;verticalAlign=top;spacingLeft=4;spacingRight=4;whiteSpace=wrap;overflow=hidden;rotatable=0;points=[[0,0.5],[1,0.5]];portConstraint=eastwest;fontSize=14;" parent="78961159f06e98e8-82" vertex="1">
          <mxGeometry y="410" width="250" height="26" as="geometry" />
        </mxCell>
        <mxCell id="daP8iGCR7o7oa7H0C6Kk-12" value="&lt;span style=&quot;font-size: 14px; text-align: center; text-decoration-line: underline;&quot;&gt;Guest_ID&lt;/span&gt;&amp;nbsp;: int (FK)" style="text;html=1;strokeColor=none;fillColor=none;align=left;verticalAlign=top;spacingLeft=4;spacingRight=4;whiteSpace=wrap;overflow=hidden;rotatable=0;points=[[0,0.5],[1,0.5]];portConstraint=eastwest;fontSize=14;" parent="78961159f06e98e8-82" vertex="1">
          <mxGeometry y="436" width="250" height="34" as="geometry" />
        </mxCell>
        <mxCell id="xuSP38dfbPnXMIdWxUSy-1" value="Guest" style="swimlane;html=1;fontStyle=1;align=center;verticalAlign=top;childLayout=stackLayout;horizontal=1;startSize=26;horizontalStack=0;resizeParent=1;resizeLast=0;collapsible=1;marginBottom=0;swimlaneFillColor=#ffffff;rounded=0;shadow=0;comic=0;labelBackgroundColor=none;strokeWidth=1;fillColor=#D4E1F5;fontFamily=Verdana;fontSize=14;strokeColor=#36393d;" parent="1" vertex="1">
          <mxGeometry x="570" y="-342" width="220" height="350" as="geometry" />
        </mxCell>
        <mxCell id="xuSP38dfbPnXMIdWxUSy-2" value="&lt;span style=&quot;font-size: 14px; text-align: center; text-decoration-line: underline;&quot;&gt;Guest_ID&lt;/span&gt;&amp;nbsp;: int (PK)" style="text;html=1;strokeColor=none;fillColor=none;align=left;verticalAlign=top;spacingLeft=4;spacingRight=4;whiteSpace=wrap;overflow=hidden;rotatable=0;points=[[0,0.5],[1,0.5]];portConstraint=eastwest;fontSize=14;" parent="xuSP38dfbPnXMIdWxUSy-1" vertex="1">
          <mxGeometry y="26" width="220" height="26" as="geometry" />
        </mxCell>
        <mxCell id="xuSP38dfbPnXMIdWxUSy-3" value="&lt;span style=&quot;font-size: 14px; text-align: center;&quot;&gt;Fname:&lt;/span&gt;&amp;nbsp;varchar" style="text;html=1;strokeColor=none;fillColor=none;align=left;verticalAlign=top;spacingLeft=4;spacingRight=4;whiteSpace=wrap;overflow=hidden;rotatable=0;points=[[0,0.5],[1,0.5]];portConstraint=eastwest;fontSize=14;" parent="xuSP38dfbPnXMIdWxUSy-1" vertex="1">
          <mxGeometry y="52" width="220" height="26" as="geometry" />
        </mxCell>
        <mxCell id="xuSP38dfbPnXMIdWxUSy-4" value="&lt;div style=&quot;text-align: center;&quot;&gt;Lname&amp;nbsp; &amp;nbsp;:&amp;nbsp; varchar&lt;/div&gt;" style="text;html=1;strokeColor=none;fillColor=none;align=left;verticalAlign=top;spacingLeft=4;spacingRight=4;whiteSpace=wrap;overflow=hidden;rotatable=0;points=[[0,0.5],[1,0.5]];portConstraint=eastwest;fontSize=14;" parent="xuSP38dfbPnXMIdWxUSy-1" vertex="1">
          <mxGeometry y="78" width="220" height="26" as="geometry" />
        </mxCell>
        <mxCell id="YuKaW529NeOiqJrcWRDg-38" value="&lt;div style=&quot;text-align: center;&quot;&gt;Gender:&amp;nbsp; varchar&lt;/div&gt;" style="text;html=1;strokeColor=none;fillColor=none;align=left;verticalAlign=top;spacingLeft=4;spacingRight=4;whiteSpace=wrap;overflow=hidden;rotatable=0;points=[[0,0.5],[1,0.5]];portConstraint=eastwest;fontSize=14;" parent="xuSP38dfbPnXMIdWxUSy-1" vertex="1">
          <mxGeometry y="104" width="220" height="26" as="geometry" />
        </mxCell>
        <mxCell id="xuSP38dfbPnXMIdWxUSy-5" value="&lt;span style=&quot;font-size: 14px; text-align: center;&quot;&gt;Emaile&lt;/span&gt;:&amp;nbsp; varchar" style="text;html=1;strokeColor=none;fillColor=none;align=left;verticalAlign=top;spacingLeft=4;spacingRight=4;whiteSpace=wrap;overflow=hidden;rotatable=0;points=[[0,0.5],[1,0.5]];portConstraint=eastwest;fontSize=14;" parent="xuSP38dfbPnXMIdWxUSy-1" vertex="1">
          <mxGeometry y="130" width="220" height="30" as="geometry" />
        </mxCell>
        <mxCell id="YuKaW529NeOiqJrcWRDg-47" value="&lt;div style=&quot;text-align: center;&quot;&gt;Phone:&amp;nbsp; char(25)&lt;/div&gt;" style="text;html=1;strokeColor=none;fillColor=none;align=left;verticalAlign=top;spacingLeft=4;spacingRight=4;whiteSpace=wrap;overflow=hidden;rotatable=0;points=[[0,0.5],[1,0.5]];portConstraint=eastwest;fontSize=14;" parent="xuSP38dfbPnXMIdWxUSy-1" vertex="1">
          <mxGeometry y="160" width="220" height="26" as="geometry" />
        </mxCell>
        <mxCell id="YuKaW529NeOiqJrcWRDg-50" value="&lt;div style=&quot;text-align: center;&quot;&gt;Birth_Date:&amp;nbsp; Date&lt;/div&gt;" style="text;html=1;strokeColor=none;fillColor=none;align=left;verticalAlign=top;spacingLeft=4;spacingRight=4;whiteSpace=wrap;overflow=hidden;rotatable=0;points=[[0,0.5],[1,0.5]];portConstraint=eastwest;fontSize=14;" parent="xuSP38dfbPnXMIdWxUSy-1" vertex="1">
          <mxGeometry y="186" width="220" height="26" as="geometry" />
        </mxCell>
        <mxCell id="YuKaW529NeOiqJrcWRDg-48" value="&lt;div style=&quot;text-align: center;&quot;&gt;Nationality :&amp;nbsp; varchar(50)&lt;/div&gt;" style="text;html=1;strokeColor=none;fillColor=none;align=left;verticalAlign=top;spacingLeft=4;spacingRight=4;whiteSpace=wrap;overflow=hidden;rotatable=0;points=[[0,0.5],[1,0.5]];portConstraint=eastwest;fontSize=14;" parent="xuSP38dfbPnXMIdWxUSy-1" vertex="1">
          <mxGeometry y="212" width="220" height="26" as="geometry" />
        </mxCell>
        <mxCell id="YuKaW529NeOiqJrcWRDg-49" value="&lt;div style=&quot;text-align: center;&quot;&gt;Country:&amp;nbsp; varchar(50)&lt;/div&gt;" style="text;html=1;strokeColor=none;fillColor=none;align=left;verticalAlign=top;spacingLeft=4;spacingRight=4;whiteSpace=wrap;overflow=hidden;rotatable=0;points=[[0,0.5],[1,0.5]];portConstraint=eastwest;fontSize=14;" parent="xuSP38dfbPnXMIdWxUSy-1" vertex="1">
          <mxGeometry y="238" width="220" height="26" as="geometry" />
        </mxCell>
        <mxCell id="YuKaW529NeOiqJrcWRDg-45" value="&lt;div style=&quot;text-align: center;&quot;&gt;City:&amp;nbsp; varchar(50)&lt;/div&gt;" style="text;html=1;strokeColor=none;fillColor=none;align=left;verticalAlign=top;spacingLeft=4;spacingRight=4;whiteSpace=wrap;overflow=hidden;rotatable=0;points=[[0,0.5],[1,0.5]];portConstraint=eastwest;fontSize=14;" parent="xuSP38dfbPnXMIdWxUSy-1" vertex="1">
          <mxGeometry y="264" width="220" height="26" as="geometry" />
        </mxCell>
        <mxCell id="YuKaW529NeOiqJrcWRDg-52" value="&lt;div style=&quot;text-align: center;&quot;&gt;Posta_Code:&amp;nbsp; varchar(50)&lt;/div&gt;" style="text;html=1;strokeColor=none;fillColor=none;align=left;verticalAlign=top;spacingLeft=4;spacingRight=4;whiteSpace=wrap;overflow=hidden;rotatable=0;points=[[0,0.5],[1,0.5]];portConstraint=eastwest;fontSize=14;" parent="xuSP38dfbPnXMIdWxUSy-1" vertex="1">
          <mxGeometry y="290" width="220" height="26" as="geometry" />
        </mxCell>
        <mxCell id="YuKaW529NeOiqJrcWRDg-51" value="&lt;div style=&quot;text-align: center;&quot;&gt;Address:&amp;nbsp; varchar(50)&lt;/div&gt;" style="text;html=1;strokeColor=none;fillColor=none;align=left;verticalAlign=top;spacingLeft=4;spacingRight=4;whiteSpace=wrap;overflow=hidden;rotatable=0;points=[[0,0.5],[1,0.5]];portConstraint=eastwest;fontSize=14;" parent="xuSP38dfbPnXMIdWxUSy-1" vertex="1">
          <mxGeometry y="316" width="220" height="26" as="geometry" />
        </mxCell>
        <mxCell id="Ki-QYSScQkBh6RQ4VKsm-6" style="edgeStyle=orthogonalEdgeStyle;rounded=0;orthogonalLoop=1;jettySize=auto;html=1;exitX=0.75;exitY=0;exitDx=0;exitDy=0;entryX=0.5;entryY=1;entryDx=0;entryDy=0;" parent="1" source="nbvwG7XpOPqGtv50H3y--1" edge="1" target="78961159f06e98e8-17">
          <mxGeometry relative="1" as="geometry">
            <mxPoint x="-80" y="10" as="targetPoint" />
          </mxGeometry>
        </mxCell>
        <mxCell id="nbvwG7XpOPqGtv50H3y--1" value="Review" style="swimlane;html=1;fontStyle=1;align=center;verticalAlign=top;childLayout=stackLayout;horizontal=1;startSize=26;horizontalStack=0;resizeParent=1;resizeLast=0;collapsible=1;marginBottom=0;swimlaneFillColor=#ffffff;rounded=0;shadow=0;comic=0;labelBackgroundColor=none;strokeWidth=1;fillColor=#D4E1F5;fontFamily=Verdana;fontSize=14;strokeColor=#36393d;" parent="1" vertex="1">
          <mxGeometry x="-41" y="82" width="220" height="350" as="geometry" />
        </mxCell>
        <mxCell id="nbvwG7XpOPqGtv50H3y--2" value="&lt;span style=&quot;font-size: 14px; text-align: center; text-decoration-line: underline;&quot;&gt;Review_ID&lt;/span&gt;&amp;nbsp;: int (PK)" style="text;html=1;strokeColor=none;fillColor=none;align=left;verticalAlign=top;spacingLeft=4;spacingRight=4;whiteSpace=wrap;overflow=hidden;rotatable=0;points=[[0,0.5],[1,0.5]];portConstraint=eastwest;fontSize=14;" parent="nbvwG7XpOPqGtv50H3y--1" vertex="1">
          <mxGeometry y="26" width="220" height="26" as="geometry" />
        </mxCell>
        <mxCell id="nbvwG7XpOPqGtv50H3y--3" value="&lt;span style=&quot;font-size: 14px; text-align: center;&quot;&gt;Review_Title:&lt;/span&gt;&amp;nbsp;varchar(50)" style="text;html=1;strokeColor=none;fillColor=none;align=left;verticalAlign=top;spacingLeft=4;spacingRight=4;whiteSpace=wrap;overflow=hidden;rotatable=0;points=[[0,0.5],[1,0.5]];portConstraint=eastwest;fontSize=14;" parent="nbvwG7XpOPqGtv50H3y--1" vertex="1">
          <mxGeometry y="52" width="220" height="26" as="geometry" />
        </mxCell>
        <mxCell id="nbvwG7XpOPqGtv50H3y--14" value="&lt;span style=&quot;font-size: 14px; text-align: center;&quot;&gt;Review_Text:&lt;/span&gt;&amp;nbsp;varchar(100)" style="text;html=1;strokeColor=none;fillColor=none;align=left;verticalAlign=top;spacingLeft=4;spacingRight=4;whiteSpace=wrap;overflow=hidden;rotatable=0;points=[[0,0.5],[1,0.5]];portConstraint=eastwest;fontSize=14;" parent="nbvwG7XpOPqGtv50H3y--1" vertex="1">
          <mxGeometry y="78" width="220" height="26" as="geometry" />
        </mxCell>
        <mxCell id="nbvwG7XpOPqGtv50H3y--4" value="&lt;div style=&quot;text-align: center;&quot;&gt;Type of Traveler:&amp;nbsp; varchar(50)&lt;/div&gt;" style="text;html=1;strokeColor=none;fillColor=none;align=left;verticalAlign=top;spacingLeft=4;spacingRight=4;whiteSpace=wrap;overflow=hidden;rotatable=0;points=[[0,0.5],[1,0.5]];portConstraint=eastwest;fontSize=14;" parent="nbvwG7XpOPqGtv50H3y--1" vertex="1">
          <mxGeometry y="104" width="220" height="26" as="geometry" />
        </mxCell>
        <mxCell id="nbvwG7XpOPqGtv50H3y--5" value="&lt;div style=&quot;text-align: center;&quot;&gt;Stayed_Period:&amp;nbsp; varchar(50)&lt;/div&gt;" style="text;html=1;strokeColor=none;fillColor=none;align=left;verticalAlign=top;spacingLeft=4;spacingRight=4;whiteSpace=wrap;overflow=hidden;rotatable=0;points=[[0,0.5],[1,0.5]];portConstraint=eastwest;fontSize=14;" parent="nbvwG7XpOPqGtv50H3y--1" vertex="1">
          <mxGeometry y="130" width="220" height="26" as="geometry" />
        </mxCell>
        <mxCell id="nbvwG7XpOPqGtv50H3y--6" value="&lt;div style=&quot;text-align: center;&quot;&gt;&lt;span style=&quot;background-color: initial;&quot;&gt;Hotel avg Rating:&amp;nbsp; Float&lt;/span&gt;&lt;/div&gt;" style="text;html=1;strokeColor=none;fillColor=none;align=left;verticalAlign=top;spacingLeft=4;spacingRight=4;whiteSpace=wrap;overflow=hidden;rotatable=0;points=[[0,0.5],[1,0.5]];portConstraint=eastwest;fontSize=14;" parent="nbvwG7XpOPqGtv50H3y--1" vertex="1">
          <mxGeometry y="156" width="220" height="30" as="geometry" />
        </mxCell>
        <mxCell id="nbvwG7XpOPqGtv50H3y--17" value="&lt;div style=&quot;text-align: center;&quot;&gt;&lt;span style=&quot;background-color: initial;&quot;&gt;User Rating:&amp;nbsp; Float&lt;/span&gt;&lt;/div&gt;" style="text;html=1;strokeColor=none;fillColor=none;align=left;verticalAlign=top;spacingLeft=4;spacingRight=4;whiteSpace=wrap;overflow=hidden;rotatable=0;points=[[0,0.5],[1,0.5]];portConstraint=eastwest;fontSize=14;" parent="nbvwG7XpOPqGtv50H3y--1" vertex="1">
          <mxGeometry y="186" width="220" height="30" as="geometry" />
        </mxCell>
        <mxCell id="nbvwG7XpOPqGtv50H3y--19" value="&lt;div style=&quot;text-align: center;&quot;&gt;&lt;span style=&quot;background-color: initial;&quot;&gt;Booking_id: int (FK)&lt;/span&gt;&lt;/div&gt;" style="text;html=1;strokeColor=none;fillColor=none;align=left;verticalAlign=top;spacingLeft=4;spacingRight=4;whiteSpace=wrap;overflow=hidden;rotatable=0;points=[[0,0.5],[1,0.5]];portConstraint=eastwest;fontSize=14;" parent="nbvwG7XpOPqGtv50H3y--1" vertex="1">
          <mxGeometry y="216" width="220" height="30" as="geometry" />
        </mxCell>
        <mxCell id="nbvwG7XpOPqGtv50H3y--20" value="&lt;div style=&quot;text-align: center;&quot;&gt;&lt;span style=&quot;background-color: initial;&quot;&gt;Guest_id: int (FK)&lt;/span&gt;&lt;/div&gt;" style="text;html=1;strokeColor=none;fillColor=none;align=left;verticalAlign=top;spacingLeft=4;spacingRight=4;whiteSpace=wrap;overflow=hidden;rotatable=0;points=[[0,0.5],[1,0.5]];portConstraint=eastwest;fontSize=14;" parent="nbvwG7XpOPqGtv50H3y--1" vertex="1">
          <mxGeometry y="246" width="220" height="36" as="geometry" />
        </mxCell>
        <mxCell id="nbvwG7XpOPqGtv50H3y--18" value="&lt;div style=&quot;text-align: center;&quot;&gt;&lt;span style=&quot;background-color: initial;&quot;&gt;Hotel_id: int (FK)&lt;/span&gt;&lt;/div&gt;" style="text;html=1;strokeColor=none;fillColor=none;align=left;verticalAlign=top;spacingLeft=4;spacingRight=4;whiteSpace=wrap;overflow=hidden;rotatable=0;points=[[0,0.5],[1,0.5]];portConstraint=eastwest;fontSize=14;" parent="nbvwG7XpOPqGtv50H3y--1" vertex="1">
          <mxGeometry y="282" width="220" height="30" as="geometry" />
        </mxCell>
        <mxCell id="nbvwG7XpOPqGtv50H3y--15" value="&lt;div style=&quot;text-align: center;&quot;&gt;&lt;span style=&quot;background-color: initial;&quot;&gt;Room_id: int (FK)&lt;/span&gt;&lt;/div&gt;" style="text;html=1;strokeColor=none;fillColor=none;align=left;verticalAlign=top;spacingLeft=4;spacingRight=4;whiteSpace=wrap;overflow=hidden;rotatable=0;points=[[0,0.5],[1,0.5]];portConstraint=eastwest;fontSize=14;" parent="nbvwG7XpOPqGtv50H3y--1" vertex="1">
          <mxGeometry y="312" width="220" height="30" as="geometry" />
        </mxCell>
        <mxCell id="Ki-QYSScQkBh6RQ4VKsm-7" style="edgeStyle=orthogonalEdgeStyle;rounded=0;orthogonalLoop=1;jettySize=auto;html=1;exitX=1;exitY=0.5;exitDx=0;exitDy=0;entryX=0;entryY=0.5;entryDx=0;entryDy=0;" parent="1" source="nbvwG7XpOPqGtv50H3y--15" target="78961159f06e98e8-76" edge="1">
          <mxGeometry relative="1" as="geometry" />
        </mxCell>
        <mxCell id="Ki-QYSScQkBh6RQ4VKsm-8" style="edgeStyle=orthogonalEdgeStyle;rounded=0;orthogonalLoop=1;jettySize=auto;html=1;exitX=1;exitY=0.5;exitDx=0;exitDy=0;entryX=0;entryY=0.5;entryDx=0;entryDy=0;" parent="1" source="nbvwG7XpOPqGtv50H3y--4" target="YuKaW529NeOiqJrcWRDg-21" edge="1">
          <mxGeometry relative="1" as="geometry" />
        </mxCell>
        <mxCell id="Ki-QYSScQkBh6RQ4VKsm-9" style="edgeStyle=orthogonalEdgeStyle;rounded=0;orthogonalLoop=1;jettySize=auto;html=1;exitX=1;exitY=0.5;exitDx=0;exitDy=0;entryX=0.546;entryY=0.007;entryDx=0;entryDy=0;entryPerimeter=0;" parent="1" source="YuKaW529NeOiqJrcWRDg-20" target="78961159f06e98e8-69" edge="1">
          <mxGeometry relative="1" as="geometry" />
        </mxCell>
        <mxCell id="Ki-QYSScQkBh6RQ4VKsm-10" style="edgeStyle=orthogonalEdgeStyle;rounded=0;orthogonalLoop=1;jettySize=auto;html=1;exitX=0.5;exitY=0;exitDx=0;exitDy=0;entryX=1;entryY=0.5;entryDx=0;entryDy=0;" parent="1" source="78961159f06e98e8-82" target="78961159f06e98e8-33" edge="1">
          <mxGeometry relative="1" as="geometry" />
        </mxCell>
        <mxCell id="Ki-QYSScQkBh6RQ4VKsm-11" style="edgeStyle=orthogonalEdgeStyle;rounded=0;orthogonalLoop=1;jettySize=auto;html=1;exitX=1;exitY=0.5;exitDx=0;exitDy=0;entryX=0.001;entryY=-0.099;entryDx=0;entryDy=0;entryPerimeter=0;" parent="1" source="78961159f06e98e8-83" target="YuKaW529NeOiqJrcWRDg-45" edge="1">
          <mxGeometry relative="1" as="geometry" />
        </mxCell>
        <mxCell id="wZdUe0pedEdtOcgRMRmC-1" style="edgeStyle=orthogonalEdgeStyle;rounded=0;orthogonalLoop=1;jettySize=auto;html=1;exitX=0.5;exitY=0;exitDx=0;exitDy=0;entryX=0;entryY=0.5;entryDx=0;entryDy=0;" edge="1" parent="1" source="xuSP38dfbPnXMIdWxUSy-1" target="nbvwG7XpOPqGtv50H3y--6">
          <mxGeometry relative="1" as="geometry" />
        </mxCell>
      </root>
    </mxGraphModel>
  </diagram>
  <diagram name="Copy of Page-1" id="evpprVvgbu2GzQHprVbH">
    <mxGraphModel dx="3725" dy="2258" grid="1" gridSize="10" guides="1" tooltips="1" connect="1" arrows="1" fold="1" page="1" pageScale="1" pageWidth="1100" pageHeight="850" background="none" math="0" shadow="0">
      <root>
        <mxCell id="2wCNnJhHsgzKINpL9XFt-0" />
        <mxCell id="2wCNnJhHsgzKINpL9XFt-1" parent="2wCNnJhHsgzKINpL9XFt-0" />
        <mxCell id="2wCNnJhHsgzKINpL9XFt-2" value="Hotel" style="swimlane;html=1;fontStyle=1;align=center;verticalAlign=top;childLayout=stackLayout;horizontal=1;startSize=26;horizontalStack=0;resizeParent=1;resizeLast=0;collapsible=1;marginBottom=0;swimlaneFillColor=#ffffff;rounded=0;shadow=0;comic=0;labelBackgroundColor=none;strokeWidth=1;fillColor=#eeeeee;fontFamily=Verdana;fontSize=14;strokeColor=#36393d;" vertex="1" parent="2wCNnJhHsgzKINpL9XFt-1">
          <mxGeometry x="280" y="-190" width="160" height="307" as="geometry" />
        </mxCell>
        <mxCell id="2wCNnJhHsgzKINpL9XFt-3" value="&lt;span style=&quot;text-align: center; font-size: 14px;&quot;&gt;&lt;u&gt;Hotel _ID&lt;/u&gt;&lt;/span&gt;: int (PK)" style="text;html=1;strokeColor=none;fillColor=none;align=left;verticalAlign=top;spacingLeft=4;spacingRight=4;whiteSpace=wrap;overflow=hidden;rotatable=0;points=[[0,0.5],[1,0.5]];portConstraint=eastwest;fontSize=14;" vertex="1" parent="2wCNnJhHsgzKINpL9XFt-2">
          <mxGeometry y="26" width="160" height="26" as="geometry" />
        </mxCell>
        <mxCell id="2wCNnJhHsgzKINpL9XFt-4" value="&lt;span style=&quot;text-align: center; font-size: 14px;&quot;&gt;Name&amp;nbsp;&lt;/span&gt;: varchar" style="text;html=1;strokeColor=none;fillColor=none;align=left;verticalAlign=top;spacingLeft=4;spacingRight=4;whiteSpace=wrap;overflow=hidden;rotatable=0;points=[[0,0.5],[1,0.5]];portConstraint=eastwest;fontSize=14;" vertex="1" parent="2wCNnJhHsgzKINpL9XFt-2">
          <mxGeometry y="52" width="160" height="26" as="geometry" />
        </mxCell>
        <mxCell id="2wCNnJhHsgzKINpL9XFt-5" value="&lt;span style=&quot;text-align: center; font-size: 14px;&quot;&gt;Country&lt;/span&gt;: varchar" style="text;html=1;strokeColor=none;fillColor=none;align=left;verticalAlign=top;spacingLeft=4;spacingRight=4;whiteSpace=wrap;overflow=hidden;rotatable=0;points=[[0,0.5],[1,0.5]];portConstraint=eastwest;fontSize=14;" vertex="1" parent="2wCNnJhHsgzKINpL9XFt-2">
          <mxGeometry y="78" width="160" height="26" as="geometry" />
        </mxCell>
        <mxCell id="2wCNnJhHsgzKINpL9XFt-6" value="&lt;span style=&quot;text-align: center; font-size: 14px;&quot;&gt;State&amp;nbsp;&lt;/span&gt;: varchar" style="text;html=1;strokeColor=none;fillColor=none;align=left;verticalAlign=top;spacingLeft=4;spacingRight=4;whiteSpace=wrap;overflow=hidden;rotatable=0;points=[[0,0.5],[1,0.5]];portConstraint=eastwest;fontSize=14;" vertex="1" parent="2wCNnJhHsgzKINpL9XFt-2">
          <mxGeometry y="104" width="160" height="26" as="geometry" />
        </mxCell>
        <mxCell id="2wCNnJhHsgzKINpL9XFt-7" value="&lt;span style=&quot;text-align: center; font-size: 14px;&quot;&gt;City&lt;/span&gt;: varchar" style="text;html=1;strokeColor=none;fillColor=none;align=left;verticalAlign=top;spacingLeft=4;spacingRight=4;whiteSpace=wrap;overflow=hidden;rotatable=0;points=[[0,0.5],[1,0.5]];portConstraint=eastwest;fontSize=14;" vertex="1" parent="2wCNnJhHsgzKINpL9XFt-2">
          <mxGeometry y="130" width="160" height="26" as="geometry" />
        </mxCell>
        <mxCell id="2wCNnJhHsgzKINpL9XFt-8" value="&lt;span style=&quot;text-align: center; font-size: 14px;&quot;&gt;Zip_Code&lt;/span&gt;: varchar" style="text;html=1;strokeColor=none;fillColor=none;align=left;verticalAlign=top;spacingLeft=4;spacingRight=4;whiteSpace=wrap;overflow=hidden;rotatable=0;points=[[0,0.5],[1,0.5]];portConstraint=eastwest;fontSize=14;" vertex="1" parent="2wCNnJhHsgzKINpL9XFt-2">
          <mxGeometry y="156" width="160" height="26" as="geometry" />
        </mxCell>
        <mxCell id="2wCNnJhHsgzKINpL9XFt-9" value="&lt;span style=&quot;text-align: center; font-size: 14px;&quot;&gt;Rating&amp;nbsp;&lt;/span&gt;: float" style="text;html=1;strokeColor=none;fillColor=none;align=left;verticalAlign=top;spacingLeft=4;spacingRight=4;whiteSpace=wrap;overflow=hidden;rotatable=0;points=[[0,0.5],[1,0.5]];portConstraint=eastwest;fontSize=14;" vertex="1" parent="2wCNnJhHsgzKINpL9XFt-2">
          <mxGeometry y="182" width="160" height="26" as="geometry" />
        </mxCell>
        <mxCell id="2wCNnJhHsgzKINpL9XFt-10" value="&lt;span style=&quot;text-align: center; font-size: 14px;&quot;&gt;Description&lt;/span&gt;: varchar" style="text;html=1;strokeColor=none;fillColor=none;align=left;verticalAlign=top;spacingLeft=4;spacingRight=4;whiteSpace=wrap;overflow=hidden;rotatable=0;points=[[0,0.5],[1,0.5]];portConstraint=eastwest;fontSize=14;" vertex="1" parent="2wCNnJhHsgzKINpL9XFt-2">
          <mxGeometry y="208" width="160" height="26" as="geometry" />
        </mxCell>
        <mxCell id="2wCNnJhHsgzKINpL9XFt-11" value="&lt;span style=&quot;font-family: Helvetica; font-size: 14px; text-wrap: wrap;&quot;&gt;Transportation&lt;/span&gt;" style="swimlane;html=1;fontStyle=1;align=center;verticalAlign=top;childLayout=stackLayout;horizontal=1;startSize=30;horizontalStack=0;resizeParent=1;resizeLast=0;collapsible=1;marginBottom=0;swimlaneFillColor=#ffffff;rounded=0;shadow=0;comic=0;labelBackgroundColor=none;strokeWidth=1;fillColor=#eeeeee;fontFamily=Verdana;fontSize=14;strokeColor=#36393d;" vertex="1" parent="2wCNnJhHsgzKINpL9XFt-1">
          <mxGeometry x="-300" y="-170" width="160" height="220" as="geometry" />
        </mxCell>
        <mxCell id="2wCNnJhHsgzKINpL9XFt-12" value="&lt;span style=&quot;text-align: center;&quot;&gt;&lt;u&gt;Transport_ID&amp;nbsp;&lt;/u&gt;:&lt;/span&gt;&amp;nbsp;int&amp;nbsp; (PK)" style="text;html=1;strokeColor=none;fillColor=none;align=left;verticalAlign=top;spacingLeft=4;spacingRight=4;whiteSpace=wrap;overflow=hidden;rotatable=0;points=[[0,0.5],[1,0.5]];portConstraint=eastwest;fontSize=14;" vertex="1" parent="2wCNnJhHsgzKINpL9XFt-11">
          <mxGeometry y="30" width="160" height="26" as="geometry" />
        </mxCell>
        <mxCell id="2wCNnJhHsgzKINpL9XFt-13" value="&lt;span style=&quot;font-size: 14px; text-align: center;&quot;&gt;Type&amp;nbsp;&lt;/span&gt;: varchar" style="text;html=1;strokeColor=none;fillColor=none;align=left;verticalAlign=top;spacingLeft=4;spacingRight=4;whiteSpace=wrap;overflow=hidden;rotatable=0;points=[[0,0.5],[1,0.5]];portConstraint=eastwest;fontSize=14;" vertex="1" parent="2wCNnJhHsgzKINpL9XFt-11">
          <mxGeometry y="56" width="160" height="28" as="geometry" />
        </mxCell>
        <mxCell id="2wCNnJhHsgzKINpL9XFt-14" value="&lt;span style=&quot;font-size: 14px; text-align: center;&quot;&gt;Schedule&amp;nbsp;&lt;/span&gt;: float" style="text;html=1;strokeColor=none;fillColor=none;align=left;verticalAlign=top;spacingLeft=4;spacingRight=4;whiteSpace=wrap;overflow=hidden;rotatable=0;points=[[0,0.5],[1,0.5]];portConstraint=eastwest;fontSize=14;" vertex="1" parent="2wCNnJhHsgzKINpL9XFt-11">
          <mxGeometry y="84" width="160" height="26" as="geometry" />
        </mxCell>
        <mxCell id="2wCNnJhHsgzKINpL9XFt-15" value="&lt;span style=&quot;font-size: 14px; text-align: center;&quot;&gt;Price&amp;nbsp;&lt;/span&gt;: float" style="text;html=1;strokeColor=none;fillColor=none;align=left;verticalAlign=top;spacingLeft=4;spacingRight=4;whiteSpace=wrap;overflow=hidden;rotatable=0;points=[[0,0.5],[1,0.5]];portConstraint=eastwest;fontSize=14;" vertex="1" parent="2wCNnJhHsgzKINpL9XFt-11">
          <mxGeometry y="110" width="160" height="26" as="geometry" />
        </mxCell>
        <mxCell id="2wCNnJhHsgzKINpL9XFt-16" value="&lt;span style=&quot;font-size: 14px; text-align: center;&quot;&gt;Contact_info&amp;nbsp;&lt;/span&gt;: varchar" style="text;html=1;strokeColor=none;fillColor=none;align=left;verticalAlign=top;spacingLeft=4;spacingRight=4;whiteSpace=wrap;overflow=hidden;rotatable=0;points=[[0,0.5],[1,0.5]];portConstraint=eastwest;fontSize=14;" vertex="1" parent="2wCNnJhHsgzKINpL9XFt-11">
          <mxGeometry y="136" width="160" height="44" as="geometry" />
        </mxCell>
        <mxCell id="2wCNnJhHsgzKINpL9XFt-17" value="&lt;span style=&quot;text-align: center; font-size: 14px;&quot;&gt;Hotel _ID&lt;/span&gt;: int (FK)" style="text;html=1;strokeColor=none;fillColor=none;align=left;verticalAlign=top;spacingLeft=4;spacingRight=4;whiteSpace=wrap;overflow=hidden;rotatable=0;points=[[0,0.5],[1,0.5]];portConstraint=eastwest;fontSize=14;" vertex="1" parent="2wCNnJhHsgzKINpL9XFt-11">
          <mxGeometry y="180" width="160" height="26" as="geometry" />
        </mxCell>
        <mxCell id="2wCNnJhHsgzKINpL9XFt-18" value="Payment" style="swimlane;html=1;fontStyle=1;align=center;verticalAlign=top;childLayout=stackLayout;horizontal=1;startSize=26;horizontalStack=0;resizeParent=1;resizeLast=0;collapsible=1;marginBottom=0;swimlaneFillColor=#ffffff;rounded=0;shadow=0;comic=0;labelBackgroundColor=none;strokeWidth=1;fillColor=#eeeeee;fontFamily=Verdana;fontSize=14;strokeColor=#36393d;" vertex="1" parent="2wCNnJhHsgzKINpL9XFt-1">
          <mxGeometry x="760" y="-210" width="200" height="140" as="geometry" />
        </mxCell>
        <mxCell id="2wCNnJhHsgzKINpL9XFt-20" value="&lt;span style=&quot;font-size: 14px; text-align: center;&quot;&gt;Amount :&lt;/span&gt;&amp;nbsp;float" style="text;html=1;strokeColor=none;fillColor=none;align=left;verticalAlign=top;spacingLeft=4;spacingRight=4;whiteSpace=wrap;overflow=hidden;rotatable=0;points=[[0,0.5],[1,0.5]];portConstraint=eastwest;fontSize=14;" vertex="1" parent="2wCNnJhHsgzKINpL9XFt-18">
          <mxGeometry y="26" width="200" height="26" as="geometry" />
        </mxCell>
        <mxCell id="2wCNnJhHsgzKINpL9XFt-21" value="&lt;span style=&quot;font-size: 14px; text-align: center;&quot;&gt;Payment_Date :&lt;/span&gt;&amp;nbsp;date" style="text;html=1;strokeColor=none;fillColor=none;align=left;verticalAlign=top;spacingLeft=4;spacingRight=4;whiteSpace=wrap;overflow=hidden;rotatable=0;points=[[0,0.5],[1,0.5]];portConstraint=eastwest;fontSize=14;" vertex="1" parent="2wCNnJhHsgzKINpL9XFt-18">
          <mxGeometry y="52" width="200" height="26" as="geometry" />
        </mxCell>
        <mxCell id="2wCNnJhHsgzKINpL9XFt-22" value="&lt;span style=&quot;font-size: 14px; text-align: center;&quot;&gt;Payment_Method&amp;nbsp;&lt;/span&gt;:&amp;nbsp; varchar" style="text;html=1;strokeColor=none;fillColor=none;align=left;verticalAlign=top;spacingLeft=4;spacingRight=4;whiteSpace=wrap;overflow=hidden;rotatable=0;points=[[0,0.5],[1,0.5]];portConstraint=eastwest;fontSize=14;" vertex="1" parent="2wCNnJhHsgzKINpL9XFt-18">
          <mxGeometry y="78" width="200" height="26" as="geometry" />
        </mxCell>
        <mxCell id="2wCNnJhHsgzKINpL9XFt-23" value="Event" style="swimlane;html=1;fontStyle=1;align=center;verticalAlign=top;childLayout=stackLayout;horizontal=1;startSize=26;horizontalStack=0;resizeParent=1;resizeLast=0;collapsible=1;marginBottom=0;swimlaneFillColor=#ffffff;rounded=0;shadow=0;comic=0;labelBackgroundColor=default;strokeWidth=1;fillColor=#eeeeee;fontFamily=Verdana;fontSize=14;strokeColor=#36393d;" vertex="1" parent="2wCNnJhHsgzKINpL9XFt-1">
          <mxGeometry x="-540" y="-300" width="160" height="240" as="geometry" />
        </mxCell>
        <mxCell id="2wCNnJhHsgzKINpL9XFt-24" value="&lt;u&gt;Event_ID&lt;/u&gt;: int (PK)" style="text;html=1;strokeColor=none;fillColor=none;align=left;verticalAlign=top;spacingLeft=4;spacingRight=4;whiteSpace=wrap;overflow=hidden;rotatable=0;points=[[0,0.5],[1,0.5]];portConstraint=eastwest;fontSize=14;" vertex="1" parent="2wCNnJhHsgzKINpL9XFt-23">
          <mxGeometry y="26" width="160" height="26" as="geometry" />
        </mxCell>
        <mxCell id="2wCNnJhHsgzKINpL9XFt-25" value="&lt;span style=&quot;font-size: 14px; text-align: center;&quot;&gt;Name :&amp;nbsp;&lt;/span&gt;varchar" style="text;html=1;strokeColor=none;fillColor=none;align=left;verticalAlign=top;spacingLeft=4;spacingRight=4;whiteSpace=wrap;overflow=hidden;rotatable=0;points=[[0,0.5],[1,0.5]];portConstraint=eastwest;fontSize=14;" vertex="1" parent="2wCNnJhHsgzKINpL9XFt-23">
          <mxGeometry y="52" width="160" height="26" as="geometry" />
        </mxCell>
        <mxCell id="2wCNnJhHsgzKINpL9XFt-26" value="&lt;font style=&quot;font-size: 14px;&quot;&gt;&lt;span style=&quot;text-align: center;&quot;&gt;Location :&lt;/span&gt;&amp;nbsp;&lt;/font&gt;varchar" style="text;html=1;strokeColor=none;fillColor=none;align=left;verticalAlign=top;spacingLeft=4;spacingRight=4;whiteSpace=wrap;overflow=hidden;rotatable=0;points=[[0,0.5],[1,0.5]];portConstraint=eastwest;fontSize=14;" vertex="1" parent="2wCNnJhHsgzKINpL9XFt-23">
          <mxGeometry y="78" width="160" height="26" as="geometry" />
        </mxCell>
        <mxCell id="2wCNnJhHsgzKINpL9XFt-27" value="&lt;span style=&quot;font-size: 14px; text-align: center;&quot;&gt;Description :&lt;/span&gt;&amp;nbsp;varchar" style="text;html=1;strokeColor=none;fillColor=none;align=left;verticalAlign=top;spacingLeft=4;spacingRight=4;whiteSpace=wrap;overflow=hidden;rotatable=0;points=[[0,0.5],[1,0.5]];portConstraint=eastwest;fontSize=14;" vertex="1" parent="2wCNnJhHsgzKINpL9XFt-23">
          <mxGeometry y="104" width="160" height="30" as="geometry" />
        </mxCell>
        <mxCell id="2wCNnJhHsgzKINpL9XFt-28" value="&lt;span style=&quot;font-size: 14px; text-align: center;&quot;&gt;Start_date&amp;nbsp;&lt;/span&gt;: date" style="text;html=1;strokeColor=none;fillColor=none;align=left;verticalAlign=top;spacingLeft=4;spacingRight=4;whiteSpace=wrap;overflow=hidden;rotatable=0;points=[[0,0.5],[1,0.5]];portConstraint=eastwest;fontSize=14;" vertex="1" parent="2wCNnJhHsgzKINpL9XFt-23">
          <mxGeometry y="134" width="160" height="26" as="geometry" />
        </mxCell>
        <mxCell id="2wCNnJhHsgzKINpL9XFt-29" value="&lt;span style=&quot;font-size: 14px; text-align: center;&quot;&gt;End_date&amp;nbsp;&lt;/span&gt;: date" style="text;html=1;strokeColor=none;fillColor=none;align=left;verticalAlign=top;spacingLeft=4;spacingRight=4;whiteSpace=wrap;overflow=hidden;rotatable=0;points=[[0,0.5],[1,0.5]];portConstraint=eastwest;fontSize=14;" vertex="1" parent="2wCNnJhHsgzKINpL9XFt-23">
          <mxGeometry y="160" width="160" height="30" as="geometry" />
        </mxCell>
        <mxCell id="2wCNnJhHsgzKINpL9XFt-30" value="&lt;span style=&quot;text-align: center; font-size: 14px;&quot;&gt;&lt;u&gt;Hotel _ID&lt;/u&gt;&lt;/span&gt;: int&amp;nbsp;&amp;nbsp;(FK)" style="text;html=1;strokeColor=none;fillColor=none;align=left;verticalAlign=top;spacingLeft=4;spacingRight=4;whiteSpace=wrap;overflow=hidden;rotatable=0;points=[[0,0.5],[1,0.5]];portConstraint=eastwest;fontSize=14;" vertex="1" parent="2wCNnJhHsgzKINpL9XFt-23">
          <mxGeometry y="190" width="160" height="26" as="geometry" />
        </mxCell>
        <mxCell id="2wCNnJhHsgzKINpL9XFt-31" value="Room" style="swimlane;html=1;fontStyle=1;align=center;verticalAlign=top;childLayout=stackLayout;horizontal=1;startSize=26;horizontalStack=0;resizeParent=1;resizeLast=0;collapsible=1;marginBottom=0;swimlaneFillColor=#ffffff;rounded=0;shadow=0;comic=0;labelBackgroundColor=none;strokeWidth=1;fillColor=#eeeeee;fontFamily=Verdana;fontSize=14;strokeColor=#36393d;" vertex="1" parent="2wCNnJhHsgzKINpL9XFt-1">
          <mxGeometry x="-290" y="100" width="160" height="230" as="geometry" />
        </mxCell>
        <mxCell id="2wCNnJhHsgzKINpL9XFt-32" value="&lt;span style=&quot;font-size: 14px; text-align: center;&quot;&gt;&lt;u&gt;Room_ID&lt;/u&gt;&lt;/span&gt;: int (PK)" style="text;html=1;strokeColor=none;fillColor=none;align=left;verticalAlign=top;spacingLeft=4;spacingRight=4;whiteSpace=wrap;overflow=hidden;rotatable=0;points=[[0,0.5],[1,0.5]];portConstraint=eastwest;fontSize=14;" vertex="1" parent="2wCNnJhHsgzKINpL9XFt-31">
          <mxGeometry y="26" width="160" height="26" as="geometry" />
        </mxCell>
        <mxCell id="2wCNnJhHsgzKINpL9XFt-33" value="&lt;span style=&quot;font-size: 14px; text-align: center;&quot;&gt;Max_Occupancy&lt;/span&gt;: int" style="text;html=1;strokeColor=none;fillColor=none;align=left;verticalAlign=top;spacingLeft=4;spacingRight=4;whiteSpace=wrap;overflow=hidden;rotatable=0;points=[[0,0.5],[1,0.5]];portConstraint=eastwest;fontSize=14;" vertex="1" parent="2wCNnJhHsgzKINpL9XFt-31">
          <mxGeometry y="52" width="160" height="26" as="geometry" />
        </mxCell>
        <mxCell id="2wCNnJhHsgzKINpL9XFt-34" value="&lt;span style=&quot;font-size: 14px; text-align: center;&quot;&gt;Price_per_Night&amp;nbsp;&lt;/span&gt;: float" style="text;html=1;strokeColor=none;fillColor=none;align=left;verticalAlign=top;spacingLeft=4;spacingRight=4;whiteSpace=wrap;overflow=hidden;rotatable=0;points=[[0,0.5],[1,0.5]];portConstraint=eastwest;fontSize=14;" vertex="1" parent="2wCNnJhHsgzKINpL9XFt-31">
          <mxGeometry y="78" width="160" height="26" as="geometry" />
        </mxCell>
        <mxCell id="2wCNnJhHsgzKINpL9XFt-35" value="&lt;span style=&quot;font-size: 14px; text-align: center;&quot;&gt;Availability :&lt;/span&gt;&amp;nbsp;varchar" style="text;html=1;strokeColor=none;fillColor=none;align=left;verticalAlign=top;spacingLeft=4;spacingRight=4;whiteSpace=wrap;overflow=hidden;rotatable=0;points=[[0,0.5],[1,0.5]];portConstraint=eastwest;fontSize=14;" vertex="1" parent="2wCNnJhHsgzKINpL9XFt-31">
          <mxGeometry y="104" width="160" height="26" as="geometry" />
        </mxCell>
        <mxCell id="2wCNnJhHsgzKINpL9XFt-36" value="&lt;span style=&quot;font-size: 14px; text-align: center;&quot;&gt;Description&lt;/span&gt;: varchar" style="text;html=1;strokeColor=none;fillColor=none;align=left;verticalAlign=top;spacingLeft=4;spacingRight=4;whiteSpace=wrap;overflow=hidden;rotatable=0;points=[[0,0.5],[1,0.5]];portConstraint=eastwest;fontSize=14;" vertex="1" parent="2wCNnJhHsgzKINpL9XFt-31">
          <mxGeometry y="130" width="160" height="26" as="geometry" />
        </mxCell>
        <mxCell id="2wCNnJhHsgzKINpL9XFt-37" value="&lt;span style=&quot;font-size: 14px; text-align: center;&quot;&gt;Type&amp;nbsp;&lt;/span&gt;: varchar" style="text;html=1;strokeColor=none;fillColor=none;align=left;verticalAlign=top;spacingLeft=4;spacingRight=4;whiteSpace=wrap;overflow=hidden;rotatable=0;points=[[0,0.5],[1,0.5]];portConstraint=eastwest;fontSize=14;" vertex="1" parent="2wCNnJhHsgzKINpL9XFt-31">
          <mxGeometry y="156" width="160" height="26" as="geometry" />
        </mxCell>
        <mxCell id="2wCNnJhHsgzKINpL9XFt-38" value="&lt;span style=&quot;text-align: center; font-size: 14px;&quot;&gt;Hotel _ID&lt;/span&gt;: int (FK)" style="text;html=1;strokeColor=none;fillColor=none;align=left;verticalAlign=top;spacingLeft=4;spacingRight=4;whiteSpace=wrap;overflow=hidden;rotatable=0;points=[[0,0.5],[1,0.5]];portConstraint=eastwest;fontSize=14;" vertex="1" parent="2wCNnJhHsgzKINpL9XFt-31">
          <mxGeometry y="182" width="160" height="38" as="geometry" />
        </mxCell>
        <mxCell id="2wCNnJhHsgzKINpL9XFt-39" style="edgeStyle=orthogonalEdgeStyle;rounded=0;orthogonalLoop=1;jettySize=auto;html=1;exitX=0.25;exitY=0;exitDx=0;exitDy=0;entryX=0.75;entryY=1;entryDx=0;entryDy=0;" edge="1" parent="2wCNnJhHsgzKINpL9XFt-1" target="2wCNnJhHsgzKINpL9XFt-2">
          <mxGeometry relative="1" as="geometry">
            <mxPoint x="462.5" y="300" as="sourcePoint" />
          </mxGeometry>
        </mxCell>
        <mxCell id="2wCNnJhHsgzKINpL9XFt-40" style="edgeStyle=orthogonalEdgeStyle;rounded=0;orthogonalLoop=1;jettySize=auto;html=1;exitX=0.75;exitY=0;exitDx=0;exitDy=0;" edge="1" parent="2wCNnJhHsgzKINpL9XFt-1" target="2wCNnJhHsgzKINpL9XFt-20">
          <mxGeometry relative="1" as="geometry">
            <mxPoint x="567.5" y="300" as="sourcePoint" />
          </mxGeometry>
        </mxCell>
        <mxCell id="2wCNnJhHsgzKINpL9XFt-51" value="&lt;span style=&quot;font-family: Helvetica; text-wrap: wrap;&quot;&gt;&lt;font style=&quot;font-size: 14px;&quot;&gt;Invoice&lt;/font&gt;&lt;/span&gt;" style="swimlane;html=1;fontStyle=1;align=center;verticalAlign=top;childLayout=stackLayout;horizontal=1;startSize=26;horizontalStack=0;resizeParent=1;resizeLast=0;collapsible=1;marginBottom=0;swimlaneFillColor=#ffffff;rounded=0;shadow=0;comic=0;labelBackgroundColor=none;strokeWidth=1;fillColor=#eeeeee;fontFamily=Verdana;fontSize=14;strokeColor=#36393d;" vertex="1" parent="2wCNnJhHsgzKINpL9XFt-1">
          <mxGeometry x="980" y="70" width="160" height="220" as="geometry" />
        </mxCell>
        <mxCell id="2wCNnJhHsgzKINpL9XFt-52" value="&lt;u style=&quot;font-size: 14px; text-align: center;&quot;&gt;Invoice_ID&amp;nbsp;&lt;/u&gt;: int (PK)" style="text;html=1;strokeColor=none;fillColor=none;align=left;verticalAlign=top;spacingLeft=4;spacingRight=4;whiteSpace=wrap;overflow=hidden;rotatable=0;points=[[0,0.5],[1,0.5]];portConstraint=eastwest;fontSize=14;" vertex="1" parent="2wCNnJhHsgzKINpL9XFt-51">
          <mxGeometry y="26" width="160" height="26" as="geometry" />
        </mxCell>
        <mxCell id="2wCNnJhHsgzKINpL9XFt-53" value="&lt;span style=&quot;font-size: 14px; text-align: center;&quot;&gt;Amount&lt;/span&gt;&amp;nbsp;: float" style="text;html=1;strokeColor=none;fillColor=none;align=left;verticalAlign=top;spacingLeft=4;spacingRight=4;whiteSpace=wrap;overflow=hidden;rotatable=0;points=[[0,0.5],[1,0.5]];portConstraint=eastwest;fontSize=14;" vertex="1" parent="2wCNnJhHsgzKINpL9XFt-51">
          <mxGeometry y="52" width="160" height="26" as="geometry" />
        </mxCell>
        <mxCell id="2wCNnJhHsgzKINpL9XFt-54" value="&lt;span style=&quot;font-size: 14px; text-align: center;&quot;&gt;Issue_date&amp;nbsp;&lt;/span&gt;: date" style="text;html=1;strokeColor=none;fillColor=none;align=left;verticalAlign=top;spacingLeft=4;spacingRight=4;whiteSpace=wrap;overflow=hidden;rotatable=0;points=[[0,0.5],[1,0.5]];portConstraint=eastwest;fontSize=14;" vertex="1" parent="2wCNnJhHsgzKINpL9XFt-51">
          <mxGeometry y="78" width="160" height="26" as="geometry" />
        </mxCell>
        <mxCell id="2wCNnJhHsgzKINpL9XFt-55" value="&lt;span style=&quot;font-size: 14px; text-align: center;&quot;&gt;Due_date&amp;nbsp;&lt;/span&gt;: date" style="text;html=1;strokeColor=none;fillColor=none;align=left;verticalAlign=top;spacingLeft=4;spacingRight=4;whiteSpace=wrap;overflow=hidden;rotatable=0;points=[[0,0.5],[1,0.5]];portConstraint=eastwest;fontSize=14;" vertex="1" parent="2wCNnJhHsgzKINpL9XFt-51">
          <mxGeometry y="104" width="160" height="26" as="geometry" />
        </mxCell>
        <mxCell id="2wCNnJhHsgzKINpL9XFt-56" value="&lt;span style=&quot;font-size: 14px; text-align: center;&quot;&gt;Status&amp;nbsp;&lt;/span&gt;: varchar" style="text;html=1;strokeColor=none;fillColor=none;align=left;verticalAlign=top;spacingLeft=4;spacingRight=4;whiteSpace=wrap;overflow=hidden;rotatable=0;points=[[0,0.5],[1,0.5]];portConstraint=eastwest;fontSize=14;" vertex="1" parent="2wCNnJhHsgzKINpL9XFt-51">
          <mxGeometry y="130" width="160" height="40" as="geometry" />
        </mxCell>
        <mxCell id="2wCNnJhHsgzKINpL9XFt-57" value="&lt;span style=&quot;text-align: center;&quot;&gt;Booking_ID&lt;/span&gt;&lt;span style=&quot;text-decoration-line: underline; text-align: center;&quot;&gt;&amp;nbsp;&lt;/span&gt;: int&amp;nbsp;&amp;nbsp;&lt;span style=&quot;text-align: center;&quot;&gt;(FK)&lt;/span&gt;" style="text;html=1;strokeColor=none;fillColor=none;align=left;verticalAlign=top;spacingLeft=4;spacingRight=4;whiteSpace=wrap;overflow=hidden;rotatable=0;points=[[0,0.5],[1,0.5]];portConstraint=eastwest;fontSize=14;" vertex="1" parent="2wCNnJhHsgzKINpL9XFt-51">
          <mxGeometry y="170" width="160" height="26" as="geometry" />
        </mxCell>
        <mxCell id="2wCNnJhHsgzKINpL9XFt-64" style="edgeStyle=orthogonalEdgeStyle;rounded=0;orthogonalLoop=1;jettySize=auto;html=1;exitX=0;exitY=0.5;exitDx=0;exitDy=0;" edge="1" parent="2wCNnJhHsgzKINpL9XFt-1" target="2wCNnJhHsgzKINpL9XFt-3">
          <mxGeometry relative="1" as="geometry">
            <mxPoint x="50" y="-480" as="sourcePoint" />
          </mxGeometry>
        </mxCell>
        <mxCell id="2wCNnJhHsgzKINpL9XFt-65" value="&lt;span style=&quot;font-family: Helvetica; text-wrap: wrap;&quot;&gt;&lt;font style=&quot;font-size: 12px;&quot;&gt;Reservation_Cancellation&lt;/font&gt;&lt;/span&gt;" style="swimlane;html=1;fontStyle=1;align=center;verticalAlign=top;childLayout=stackLayout;horizontal=1;startSize=26;horizontalStack=0;resizeParent=1;resizeLast=0;collapsible=1;marginBottom=0;swimlaneFillColor=#ffffff;rounded=0;shadow=0;comic=0;labelBackgroundColor=none;strokeWidth=1;fillColor=#eeeeee;fontFamily=Verdana;fontSize=14;strokeColor=#36393d;" vertex="1" parent="2wCNnJhHsgzKINpL9XFt-1">
          <mxGeometry x="1190" y="318" width="180" height="156" as="geometry" />
        </mxCell>
        <mxCell id="2wCNnJhHsgzKINpL9XFt-66" value="&lt;u style=&quot;font-size: 14px; text-align: center;&quot;&gt;Cancellation_ID&amp;nbsp;&lt;/u&gt;: int (PK)" style="text;html=1;strokeColor=none;fillColor=none;align=left;verticalAlign=top;spacingLeft=4;spacingRight=4;whiteSpace=wrap;overflow=hidden;rotatable=0;points=[[0,0.5],[1,0.5]];portConstraint=eastwest;fontSize=14;" vertex="1" parent="2wCNnJhHsgzKINpL9XFt-65">
          <mxGeometry y="26" width="180" height="26" as="geometry" />
        </mxCell>
        <mxCell id="2wCNnJhHsgzKINpL9XFt-67" value="&lt;span style=&quot;text-align: center;&quot;&gt;Booking_ID&lt;/span&gt;&lt;span style=&quot;text-decoration-line: underline; text-align: center;&quot;&gt;&amp;nbsp;&lt;/span&gt;: int&amp;nbsp;&lt;span style=&quot;text-align: center;&quot;&gt;(FK)&lt;/span&gt;" style="text;html=1;strokeColor=none;fillColor=none;align=left;verticalAlign=top;spacingLeft=4;spacingRight=4;whiteSpace=wrap;overflow=hidden;rotatable=0;points=[[0,0.5],[1,0.5]];portConstraint=eastwest;fontSize=14;" vertex="1" parent="2wCNnJhHsgzKINpL9XFt-65">
          <mxGeometry y="52" width="180" height="26" as="geometry" />
        </mxCell>
        <mxCell id="2wCNnJhHsgzKINpL9XFt-68" value="&lt;span style=&quot;font-size: 14px; text-align: center;&quot;&gt;Reason&amp;nbsp;&lt;/span&gt;&amp;nbsp;: varchar" style="text;html=1;strokeColor=none;fillColor=none;align=left;verticalAlign=top;spacingLeft=4;spacingRight=4;whiteSpace=wrap;overflow=hidden;rotatable=0;points=[[0,0.5],[1,0.5]];portConstraint=eastwest;fontSize=14;" vertex="1" parent="2wCNnJhHsgzKINpL9XFt-65">
          <mxGeometry y="78" width="180" height="26" as="geometry" />
        </mxCell>
        <mxCell id="2wCNnJhHsgzKINpL9XFt-69" value="&lt;span style=&quot;font-size: 14px; text-align: center;&quot;&gt;Cancellatioan_date&amp;nbsp;&lt;/span&gt;&lt;span style=&quot;font-size: 14px; text-align: center;&quot;&gt;&amp;nbsp;&lt;/span&gt;: date" style="text;html=1;strokeColor=none;fillColor=none;align=left;verticalAlign=top;spacingLeft=4;spacingRight=4;whiteSpace=wrap;overflow=hidden;rotatable=0;points=[[0,0.5],[1,0.5]];portConstraint=eastwest;fontSize=14;" vertex="1" parent="2wCNnJhHsgzKINpL9XFt-65">
          <mxGeometry y="104" width="180" height="26" as="geometry" />
        </mxCell>
        <mxCell id="2wCNnJhHsgzKINpL9XFt-70" value="&lt;span style=&quot;font-size: 14px; text-align: center;&quot;&gt;Refund_amount&lt;/span&gt;&lt;span style=&quot;font-size: 14px; text-align: center;&quot;&gt;&amp;nbsp;&lt;/span&gt;: float" style="text;html=1;strokeColor=none;fillColor=none;align=left;verticalAlign=top;spacingLeft=4;spacingRight=4;whiteSpace=wrap;overflow=hidden;rotatable=0;points=[[0,0.5],[1,0.5]];portConstraint=eastwest;fontSize=14;" vertex="1" parent="2wCNnJhHsgzKINpL9XFt-65">
          <mxGeometry y="130" width="180" height="26" as="geometry" />
        </mxCell>
        <mxCell id="2wCNnJhHsgzKINpL9XFt-72" value="User" style="swimlane;html=1;fontStyle=1;align=center;verticalAlign=top;childLayout=stackLayout;horizontal=1;startSize=26;horizontalStack=0;resizeParent=1;resizeLast=0;collapsible=1;marginBottom=0;swimlaneFillColor=#ffffff;rounded=0;shadow=0;comic=0;labelBackgroundColor=none;strokeWidth=1;fillColor=#eeeeee;fontFamily=Verdana;fontSize=14;strokeColor=#36393d;" vertex="1" parent="2wCNnJhHsgzKINpL9XFt-1">
          <mxGeometry x="1050" y="-470" width="200" height="210" as="geometry" />
        </mxCell>
        <mxCell id="2wCNnJhHsgzKINpL9XFt-73" value="&lt;span style=&quot;font-size: 14px; text-align: center; text-decoration-line: underline;&quot;&gt;User_ID&lt;/span&gt;&amp;nbsp;: int (PK)" style="text;html=1;strokeColor=none;fillColor=none;align=left;verticalAlign=top;spacingLeft=4;spacingRight=4;whiteSpace=wrap;overflow=hidden;rotatable=0;points=[[0,0.5],[1,0.5]];portConstraint=eastwest;fontSize=14;" vertex="1" parent="2wCNnJhHsgzKINpL9XFt-72">
          <mxGeometry y="26" width="200" height="26" as="geometry" />
        </mxCell>
        <mxCell id="2wCNnJhHsgzKINpL9XFt-74" value="&lt;span style=&quot;font-size: 14px; text-align: center;&quot;&gt;User_Name :&lt;/span&gt;&amp;nbsp;varchar" style="text;html=1;strokeColor=none;fillColor=none;align=left;verticalAlign=top;spacingLeft=4;spacingRight=4;whiteSpace=wrap;overflow=hidden;rotatable=0;points=[[0,0.5],[1,0.5]];portConstraint=eastwest;fontSize=14;" vertex="1" parent="2wCNnJhHsgzKINpL9XFt-72">
          <mxGeometry y="52" width="200" height="26" as="geometry" />
        </mxCell>
        <mxCell id="2wCNnJhHsgzKINpL9XFt-75" value="&lt;div style=&quot;text-align: center;&quot;&gt;User_Role&amp;nbsp; &amp;nbsp;:&amp;nbsp; varchar&lt;/div&gt;" style="text;html=1;strokeColor=none;fillColor=none;align=left;verticalAlign=top;spacingLeft=4;spacingRight=4;whiteSpace=wrap;overflow=hidden;rotatable=0;points=[[0,0.5],[1,0.5]];portConstraint=eastwest;fontSize=14;" vertex="1" parent="2wCNnJhHsgzKINpL9XFt-72">
          <mxGeometry y="78" width="200" height="26" as="geometry" />
        </mxCell>
        <mxCell id="2wCNnJhHsgzKINpL9XFt-76" value="&lt;span style=&quot;font-size: 14px; text-align: center;&quot;&gt;Emaile&lt;/span&gt;:&amp;nbsp; varchar" style="text;html=1;strokeColor=none;fillColor=none;align=left;verticalAlign=top;spacingLeft=4;spacingRight=4;whiteSpace=wrap;overflow=hidden;rotatable=0;points=[[0,0.5],[1,0.5]];portConstraint=eastwest;fontSize=14;" vertex="1" parent="2wCNnJhHsgzKINpL9XFt-72">
          <mxGeometry y="104" width="200" height="30" as="geometry" />
        </mxCell>
        <mxCell id="2wCNnJhHsgzKINpL9XFt-77" value="&lt;span style=&quot;font-size: 14px; text-align: center;&quot;&gt;Password&amp;nbsp;&lt;/span&gt;: varchar&lt;div&gt;&lt;br&gt;&lt;/div&gt;&lt;div&gt;Date_joined: Date&lt;/div&gt;" style="text;html=1;strokeColor=none;fillColor=none;align=left;verticalAlign=top;spacingLeft=4;spacingRight=4;whiteSpace=wrap;overflow=hidden;rotatable=0;points=[[0,0.5],[1,0.5]];portConstraint=eastwest;fontSize=14;" vertex="1" parent="2wCNnJhHsgzKINpL9XFt-72">
          <mxGeometry y="134" width="200" height="76" as="geometry" />
        </mxCell>
        <mxCell id="2wCNnJhHsgzKINpL9XFt-78" style="edgeStyle=orthogonalEdgeStyle;rounded=0;orthogonalLoop=1;jettySize=auto;html=1;exitX=0.5;exitY=0;exitDx=0;exitDy=0;" edge="1" parent="2wCNnJhHsgzKINpL9XFt-1" source="2wCNnJhHsgzKINpL9XFt-79">
          <mxGeometry relative="1" as="geometry">
            <mxPoint x="1140" y="-260" as="targetPoint" />
          </mxGeometry>
        </mxCell>
        <mxCell id="2wCNnJhHsgzKINpL9XFt-79" value="User_Phone" style="swimlane;html=1;fontStyle=1;align=center;verticalAlign=top;childLayout=stackLayout;horizontal=1;startSize=26;horizontalStack=0;resizeParent=1;resizeLast=0;collapsible=1;marginBottom=0;swimlaneFillColor=#ffffff;rounded=0;shadow=0;comic=0;labelBackgroundColor=none;strokeWidth=1;fillColor=#eeeeee;fontFamily=Verdana;fontSize=14;strokeColor=#36393d;" vertex="1" parent="2wCNnJhHsgzKINpL9XFt-1">
          <mxGeometry x="1040" y="-180" width="200" height="130" as="geometry" />
        </mxCell>
        <mxCell id="2wCNnJhHsgzKINpL9XFt-80" value="&lt;span style=&quot;font-size: 14px; text-align: center; text-decoration-line: underline;&quot;&gt;User_ID&lt;/span&gt;&amp;nbsp;: int (FK)" style="text;html=1;strokeColor=none;fillColor=none;align=left;verticalAlign=top;spacingLeft=4;spacingRight=4;whiteSpace=wrap;overflow=hidden;rotatable=0;points=[[0,0.5],[1,0.5]];portConstraint=eastwest;fontSize=14;" vertex="1" parent="2wCNnJhHsgzKINpL9XFt-79">
          <mxGeometry y="26" width="200" height="26" as="geometry" />
        </mxCell>
        <mxCell id="2wCNnJhHsgzKINpL9XFt-81" value="&lt;span style=&quot;font-size: 14px; text-align: center;&quot;&gt;Phone :&lt;/span&gt;&amp;nbsp;char" style="text;html=1;strokeColor=none;fillColor=none;align=left;verticalAlign=top;spacingLeft=4;spacingRight=4;whiteSpace=wrap;overflow=hidden;rotatable=0;points=[[0,0.5],[1,0.5]];portConstraint=eastwest;fontSize=14;" vertex="1" parent="2wCNnJhHsgzKINpL9XFt-79">
          <mxGeometry y="52" width="200" height="26" as="geometry" />
        </mxCell>
        <mxCell id="2wCNnJhHsgzKINpL9XFt-82" value="&lt;div style=&quot;text-align: center;&quot;&gt;PK (User_id,Phone)&lt;/div&gt;" style="text;html=1;strokeColor=none;fillColor=none;align=left;verticalAlign=top;spacingLeft=4;spacingRight=4;whiteSpace=wrap;overflow=hidden;rotatable=0;points=[[0,0.5],[1,0.5]];portConstraint=eastwest;fontSize=14;" vertex="1" parent="2wCNnJhHsgzKINpL9XFt-79">
          <mxGeometry y="78" width="200" height="26" as="geometry" />
        </mxCell>
        <mxCell id="2wCNnJhHsgzKINpL9XFt-83" value="Feedback" style="swimlane;html=1;fontStyle=1;align=center;verticalAlign=top;childLayout=stackLayout;horizontal=1;startSize=26;horizontalStack=0;resizeParent=1;resizeLast=0;collapsible=1;marginBottom=0;swimlaneFillColor=#ffffff;rounded=0;shadow=0;comic=0;labelBackgroundColor=none;strokeWidth=1;fillColor=#eeeeee;fontFamily=Verdana;fontSize=14;strokeColor=#36393d;" vertex="1" parent="2wCNnJhHsgzKINpL9XFt-1">
          <mxGeometry x="1420" y="-470" width="200" height="240" as="geometry" />
        </mxCell>
        <mxCell id="2wCNnJhHsgzKINpL9XFt-84" value="&lt;span style=&quot;font-size: 14px; text-align: center; text-decoration-line: underline;&quot;&gt;Feedback_ID&lt;/span&gt;&amp;nbsp;: int (PK)" style="text;html=1;strokeColor=none;fillColor=none;align=left;verticalAlign=top;spacingLeft=4;spacingRight=4;whiteSpace=wrap;overflow=hidden;rotatable=0;points=[[0,0.5],[1,0.5]];portConstraint=eastwest;fontSize=14;" vertex="1" parent="2wCNnJhHsgzKINpL9XFt-83">
          <mxGeometry y="26" width="200" height="26" as="geometry" />
        </mxCell>
        <mxCell id="2wCNnJhHsgzKINpL9XFt-85" value="&lt;span style=&quot;font-size: 14px; text-align: center;&quot;&gt;Subject :&lt;/span&gt;&amp;nbsp;varchar" style="text;html=1;strokeColor=none;fillColor=none;align=left;verticalAlign=top;spacingLeft=4;spacingRight=4;whiteSpace=wrap;overflow=hidden;rotatable=0;points=[[0,0.5],[1,0.5]];portConstraint=eastwest;fontSize=14;" vertex="1" parent="2wCNnJhHsgzKINpL9XFt-83">
          <mxGeometry y="52" width="200" height="26" as="geometry" />
        </mxCell>
        <mxCell id="2wCNnJhHsgzKINpL9XFt-86" value="&lt;div style=&quot;text-align: center;&quot;&gt;Submission_Date : Date&lt;/div&gt;" style="text;html=1;strokeColor=none;fillColor=none;align=left;verticalAlign=top;spacingLeft=4;spacingRight=4;whiteSpace=wrap;overflow=hidden;rotatable=0;points=[[0,0.5],[1,0.5]];portConstraint=eastwest;fontSize=14;" vertex="1" parent="2wCNnJhHsgzKINpL9XFt-83">
          <mxGeometry y="78" width="200" height="26" as="geometry" />
        </mxCell>
        <mxCell id="2wCNnJhHsgzKINpL9XFt-87" value="&lt;div style=&quot;text-align: center;&quot;&gt;&lt;span style=&quot;background-color: initial;&quot;&gt;Comment:&amp;nbsp; varchar&lt;/span&gt;&lt;/div&gt;" style="text;html=1;strokeColor=none;fillColor=none;align=left;verticalAlign=top;spacingLeft=4;spacingRight=4;whiteSpace=wrap;overflow=hidden;rotatable=0;points=[[0,0.5],[1,0.5]];portConstraint=eastwest;fontSize=14;" vertex="1" parent="2wCNnJhHsgzKINpL9XFt-83">
          <mxGeometry y="104" width="200" height="30" as="geometry" />
        </mxCell>
        <mxCell id="2wCNnJhHsgzKINpL9XFt-88" value="&lt;span style=&quot;font-size: 14px; text-align: center;&quot;&gt;Rating&amp;nbsp;&lt;/span&gt;: int&lt;div&gt;&lt;br&gt;&lt;/div&gt;&lt;div&gt;Hotel_id: int (FK)&lt;/div&gt;&lt;div&gt;&lt;br&gt;&lt;/div&gt;&lt;div&gt;User_id: int (FK)&lt;br&gt;&lt;/div&gt;" style="text;html=1;strokeColor=none;fillColor=none;align=left;verticalAlign=top;spacingLeft=4;spacingRight=4;whiteSpace=wrap;overflow=hidden;rotatable=0;points=[[0,0.5],[1,0.5]];portConstraint=eastwest;fontSize=14;" vertex="1" parent="2wCNnJhHsgzKINpL9XFt-83">
          <mxGeometry y="134" width="200" height="106" as="geometry" />
        </mxCell>
        <mxCell id="2wCNnJhHsgzKINpL9XFt-89" value="Promotion&amp;nbsp;" style="swimlane;html=1;fontStyle=1;align=center;verticalAlign=top;childLayout=stackLayout;horizontal=1;startSize=26;horizontalStack=0;resizeParent=1;resizeLast=0;collapsible=1;marginBottom=0;swimlaneFillColor=#ffffff;rounded=0;shadow=0;comic=0;labelBackgroundColor=none;strokeWidth=1;fillColor=#eeeeee;fontFamily=Verdana;fontSize=14;strokeColor=#36393d;" vertex="1" parent="2wCNnJhHsgzKINpL9XFt-1">
          <mxGeometry x="1330" y="-153" width="200" height="270" as="geometry" />
        </mxCell>
        <mxCell id="2wCNnJhHsgzKINpL9XFt-90" value="&lt;span style=&quot;font-size: 14px; text-align: center; text-decoration-line: underline;&quot;&gt;Promotion_ID&lt;/span&gt;&amp;nbsp;: int (PK)" style="text;html=1;strokeColor=none;fillColor=none;align=left;verticalAlign=top;spacingLeft=4;spacingRight=4;whiteSpace=wrap;overflow=hidden;rotatable=0;points=[[0,0.5],[1,0.5]];portConstraint=eastwest;fontSize=14;" vertex="1" parent="2wCNnJhHsgzKINpL9XFt-89">
          <mxGeometry y="26" width="200" height="26" as="geometry" />
        </mxCell>
        <mxCell id="2wCNnJhHsgzKINpL9XFt-91" value="&lt;span style=&quot;font-size: 14px; text-align: center;&quot;&gt;Discount_Percentag :&lt;/span&gt;&amp;nbsp;int" style="text;html=1;strokeColor=none;fillColor=none;align=left;verticalAlign=top;spacingLeft=4;spacingRight=4;whiteSpace=wrap;overflow=hidden;rotatable=0;points=[[0,0.5],[1,0.5]];portConstraint=eastwest;fontSize=14;" vertex="1" parent="2wCNnJhHsgzKINpL9XFt-89">
          <mxGeometry y="52" width="200" height="26" as="geometry" />
        </mxCell>
        <mxCell id="2wCNnJhHsgzKINpL9XFt-92" value="&lt;div style=&quot;text-align: center;&quot;&gt;Title&amp;nbsp; &amp;nbsp;:&amp;nbsp; varchar&lt;/div&gt;" style="text;html=1;strokeColor=none;fillColor=none;align=left;verticalAlign=top;spacingLeft=4;spacingRight=4;whiteSpace=wrap;overflow=hidden;rotatable=0;points=[[0,0.5],[1,0.5]];portConstraint=eastwest;fontSize=14;" vertex="1" parent="2wCNnJhHsgzKINpL9XFt-89">
          <mxGeometry y="78" width="200" height="26" as="geometry" />
        </mxCell>
        <mxCell id="2wCNnJhHsgzKINpL9XFt-93" value="Start_Date: Date" style="text;html=1;strokeColor=none;fillColor=none;align=left;verticalAlign=top;spacingLeft=4;spacingRight=4;whiteSpace=wrap;overflow=hidden;rotatable=0;points=[[0,0.5],[1,0.5]];portConstraint=eastwest;fontSize=14;" vertex="1" parent="2wCNnJhHsgzKINpL9XFt-89">
          <mxGeometry y="104" width="200" height="30" as="geometry" />
        </mxCell>
        <mxCell id="2wCNnJhHsgzKINpL9XFt-94" value="&lt;div&gt;End_Date: Date&lt;br&gt;&lt;/div&gt;&lt;div&gt;&lt;br&gt;&lt;/div&gt;&lt;div&gt;Date_joined: Date&lt;/div&gt;&lt;div&gt;&lt;br&gt;&lt;/div&gt;&lt;div&gt;Description :varchar&amp;nbsp;&lt;/div&gt;&lt;div&gt;&lt;br&gt;&lt;/div&gt;&lt;div&gt;Hotel_id :int (FK)&lt;/div&gt;" style="text;html=1;strokeColor=none;fillColor=none;align=left;verticalAlign=top;spacingLeft=4;spacingRight=4;whiteSpace=wrap;overflow=hidden;rotatable=0;points=[[0,0.5],[1,0.5]];portConstraint=eastwest;fontSize=14;" vertex="1" parent="2wCNnJhHsgzKINpL9XFt-89">
          <mxGeometry y="134" width="200" height="136" as="geometry" />
        </mxCell>
        <mxCell id="2wCNnJhHsgzKINpL9XFt-95" style="edgeStyle=orthogonalEdgeStyle;rounded=0;orthogonalLoop=1;jettySize=auto;html=1;exitX=0;exitY=0.5;exitDx=0;exitDy=0;entryX=1;entryY=0.5;entryDx=0;entryDy=0;" edge="1" parent="2wCNnJhHsgzKINpL9XFt-1" source="2wCNnJhHsgzKINpL9XFt-87" target="2wCNnJhHsgzKINpL9XFt-76">
          <mxGeometry relative="1" as="geometry" />
        </mxCell>
        <mxCell id="2wCNnJhHsgzKINpL9XFt-103" style="edgeStyle=orthogonalEdgeStyle;rounded=0;orthogonalLoop=1;jettySize=auto;html=1;exitX=1;exitY=0.5;exitDx=0;exitDy=0;entryX=0;entryY=0.5;entryDx=0;entryDy=0;" edge="1" parent="2wCNnJhHsgzKINpL9XFt-1" source="2wCNnJhHsgzKINpL9XFt-36" target="2wCNnJhHsgzKINpL9XFt-5">
          <mxGeometry relative="1" as="geometry" />
        </mxCell>
        <mxCell id="2wCNnJhHsgzKINpL9XFt-107" style="edgeStyle=orthogonalEdgeStyle;rounded=0;orthogonalLoop=1;jettySize=auto;html=1;exitX=0;exitY=0.5;exitDx=0;exitDy=0;entryX=0.75;entryY=1;entryDx=0;entryDy=0;" edge="1" parent="2wCNnJhHsgzKINpL9XFt-1" target="2wCNnJhHsgzKINpL9XFt-31">
          <mxGeometry relative="1" as="geometry">
            <mxPoint x="410" y="339.00000000000045" as="sourcePoint" />
          </mxGeometry>
        </mxCell>
        <mxCell id="2wCNnJhHsgzKINpL9XFt-108" style="edgeStyle=orthogonalEdgeStyle;rounded=0;orthogonalLoop=1;jettySize=auto;html=1;exitX=1;exitY=0.5;exitDx=0;exitDy=0;entryX=0;entryY=0.5;entryDx=0;entryDy=0;" edge="1" parent="2wCNnJhHsgzKINpL9XFt-1" source="2wCNnJhHsgzKINpL9XFt-16" target="2wCNnJhHsgzKINpL9XFt-9">
          <mxGeometry relative="1" as="geometry" />
        </mxCell>
      </root>
    </mxGraphModel>
  </diagram>
  <diagram id="cATDqTf6Vsyv6wCS9CYx" name="Page-2">
    <mxGraphModel dx="1050" dy="564" grid="1" gridSize="10" guides="1" tooltips="1" connect="1" arrows="1" fold="1" page="1" pageScale="1" pageWidth="1169" pageHeight="827" math="0" shadow="0">
      <root>
        <mxCell id="0" />
        <mxCell id="1" parent="0" />
      </root>
    </mxGraphModel>
  </diagram>
</mxfile>
